<svg preserveAspectRatio="none" overflow="visible" style="display: block;" width="18" height="18" viewBox="0 0 18 18" fill="none" xmlns="http://www.w3.org/2000/svg">
<g id="mdi:web-remove">
<path id="Vector" d="M12.375 9C12.375 8.49 12.33 7.995 12.27 7.5H14.805C14.925 7.98 15 8.4825 15 9C15 9.2775 14.9775 9.5475 14.94 9.81C15.4575 9.885 15.9375 10.05 16.38 10.29C16.455 9.87 16.5 9.4425 16.5 9C16.5 4.875 13.125 1.5 9 1.5C4.8525 1.5 1.5 4.875 1.5 9C1.5 13.125 4.875 16.5 9 16.5C9.4425 16.5 9.87 16.455 10.29 16.38C9.93377 15.7267 9.74804 14.9941 9.75 14.25C9.75 14.0325 9.7725 13.8225 9.8025 13.6125C9.5625 14.085 9.3 14.5425 9 14.97C8.3775 14.07 7.875 13.0725 7.5675 12H10.3575C10.8079 11.2173 11.4853 10.5896 12.3 10.2C12.345 9.8025 12.375 9.405 12.375 9ZM9 3.0225C9.6225 3.9225 10.125 4.9275 10.4325 6H7.5675C7.875 4.9275 8.3775 3.9225 9 3.0225ZM3.195 10.5C3.075 10.02 3 9.5175 3 9C3 8.4825 3.075 7.98 3.195 7.5H5.73C5.67 7.995 5.625 8.49 5.625 9C5.625 9.51 5.67 10.005 5.73 10.5H3.195ZM3.81 12H6C6.2625 12.9375 6.6 13.8375 7.05 14.67C5.6837 14.1992 4.53322 13.2511 3.81 12ZM6 6H3.81C4.52898 4.74528 5.68099 3.79593 7.05 3.33C6.6 4.1625 6.2625 5.0625 6 6ZM10.755 10.5H7.245C7.17 10.005 7.125 9.51 7.125 9C7.125 8.49 7.17 7.9875 7.245 7.5H10.755C10.8225 7.9875 10.875 8.49 10.875 9C10.875 9.51 10.8225 10.005 10.755 10.5ZM10.9425 3.33C12.3225 3.8025 13.47 4.755 14.19 6H11.9775C11.7424 5.07121 11.3948 4.17458 10.9425 3.33ZM15.3075 14.25L16.905 15.84L15.84 16.905L14.25 15.3075L12.66 16.905L11.6025 15.84L13.1925 14.25L11.6025 12.66L12.66 11.6025L14.25 13.1925L15.84 11.6025L16.905 12.66L15.3075 14.25Z" fill="#182230"/>
</g>
</svg>
